# This file uses centimeters as units for non-parametric coordinates.

mtllib Inside_Bend_LP.mtl
g default
v 1.000000 0.000000 0.000000
v 0.500000 0.000000 0.000000
v 0.000000 0.000000 0.001266
v 1.000000 1.000000 0.000000
v 0.500000 1.000000 0.000000
v -0.000082 0.600000 0.000854
v 1.587995 1.013434 -1.505293
v 1.323529 1.031936 -1.852630
v 0.960925 0.543613 -2.330999
v 1.555129 0.000000 -1.548473
v 1.308582 0.000000 -1.872460
v 1.051438 0.000700 -2.204281
v 3.000000 1.000000 -2.000170
v 3.000000 1.000000 -2.500100
v 3.000000 0.600000 -2.999857
v 3.000000 0.000000 -1.999899
v 3.000000 0.000000 -2.499834
v 3.000000 0.000000 -2.999648
v 1.150451 1.000000 -0.879578
v 1.150908 0.000000 -0.878939
v 0.730793 0.000000 -1.055485
v 0.285410 0.000000 -1.229635
v 0.223688 0.600000 -1.276462
v 0.728253 1.000000 -1.057581
v 2.163158 1.000000 -1.911793
v 2.163158 0.000000 -1.911572
v 2.040905 0.000000 -2.355076
v 1.915176 0.000000 -2.803235
v 1.898084 0.600000 -2.841951
v 2.039720 1.000000 -2.356905
v 1.851948 1.003598 -1.765056
v 1.831567 0.000000 -1.770942
v 1.659556 0.000000 -2.157978
v 1.479442 0.000000 -2.555996
v 1.443061 0.598453 -2.652547
v 1.687220 1.006933 -2.177541
v 2.557749 0.000000 -1.980413
v 2.557749 1.000000 -1.980670
v 2.480548 1.000000 -2.465703
v 2.401313 0.600000 -2.958900
v 2.405164 0.000000 -2.950998
v 2.480557 0.000000 -2.465431
v 1.325897 0.000000 -1.248718
v 1.325038 1.000632 -1.245701
v 0.977212 1.005122 -1.480981
v 0.555835 0.599137 -1.864270
v 0.633932 -0.000000 -1.759724
v 0.994275 0.000000 -1.502212
v 1.042905 1.000000 -0.452555
v 1.042905 0.000000 -0.452555
v 0.554982 0.000000 -0.546876
v 0.072250 0.000000 -0.635851
v 0.065668 0.600000 -0.663811
v 0.554877 1.000000 -0.547654
v 0.250000 0.000000 0.000186
v 0.250000 0.800000 0.000186
v 0.309446 0.800000 -0.607964
v 0.471592 0.800000 -1.170803
v 0.766017 0.796983 -1.677883
v 1.132413 0.771613 -2.106924
v 1.566599 0.794955 -2.427920
v 1.967236 0.800000 -2.601619
v 2.440535 0.800000 -2.712598
v 3.000000 0.800000 -2.750004
v 3.000000 0.000000 -2.749755
v 2.442658 0.000000 -2.708112
v 1.977790 0.000000 -2.577849
v 1.572064 0.000000 -2.354639
v 1.183403 0.000257 -2.036690
v 0.819328 0.000000 -1.629646
v 0.508810 0.000000 -1.142465
v 0.312827 0.000000 -0.591839
v 1.011170 1.000000 -0.227372
v 1.011170 0.000000 -0.227372
v 0.513578 0.000000 -0.275869
v 0.264782 0.000000 -0.298907
v 0.018235 0.000000 -0.320369
v 0.015032 0.600000 -0.336382
v 0.263054 0.800000 -0.307594
v 0.513578 1.000000 -0.275965
v 1.230023 0.999749 -1.074117
v 1.230827 0.000000 -1.072000
v 0.854518 0.000000 -1.287644
v 0.655736 0.000000 -1.394764
v 0.446897 0.000000 -1.502662
v 0.376331 0.600000 -1.578446
v 0.617016 0.800000 -1.437925
v 0.852722 1.000000 -1.289882
v 1.434529 0.000000 -1.407821
v 1.445108 1.007969 -1.373468
v 1.121956 1.022024 -1.646224
v 0.901971 0.781037 -1.883634
v 0.716345 0.566865 -2.098866
v 0.836963 0.000048 -1.995116
v 0.996388 0.000000 -1.844328
v 1.146271 -0.000000 -1.697612
v 1.088055 0.000000 -0.671246
v 1.088055 1.000000 -0.671452
v 0.627003 1.000000 -0.808549
v 0.373329 0.800000 -0.893771
v 0.126667 0.600000 -0.973858
v 0.162551 0.000000 -0.938237
v 0.394260 0.000000 -0.873612
v 0.627702 0.000000 -0.807745
v 1.728365 1.010899 -1.644678
v 1.687118 0.000000 -1.670199
v 1.479467 -0.000000 -2.026078
v 1.377892 0.000018 -2.207925
v 1.264623 0.000103 -2.394197
v 1.228542 0.569782 -2.526844
v 1.380123 0.780424 -2.312354
v 1.527368 1.022635 -2.046703
v 1.990344 0.000000 -1.850474
v 1.988797 0.999547 -1.850731
v 1.846496 1.000074 -2.271529
v 1.754289 0.800000 -2.518644
v 1.665910 0.600000 -2.760610
v 1.694126 0.000000 -2.692360
v 1.769367 0.000000 -2.477918
v 1.847816 0.000000 -2.268097
v 2.352819 1.000000 -1.953955
v 2.352819 0.000000 -1.953713
v 2.250569 0.000000 -2.420686
v 2.200326 0.000000 -2.654987
v 2.150567 0.000000 -2.889944
v 2.140579 0.600000 -2.907844
v 2.194630 0.800000 -2.665251
v 2.250077 1.000000 -2.421496
v 2.774773 0.000000 -1.995230
v 2.774773 1.000000 -1.995497
v 2.731085 1.000000 -2.491615
v 2.709279 0.800000 -2.740009
v 2.687354 0.600000 -2.988906
v 2.687943 0.000000 -2.987521
v 2.709446 0.000000 -2.739430
v 2.731085 0.000000 -2.491352
vt 0.211012 0.017348
vt 0.117150 0.017255
vt 0.492598 0.017626
vt 0.398736 0.017533
vt 0.023288 0.017162
vt 0.612800 0.017745
vt 0.612137 0.490751
vt 0.116487 0.490260
vt 0.210349 0.490353
vt 0.724771 0.490862
vt 0.398073 0.490539
vt 0.491935 0.490632
vt 0.967437 0.020915
vt 0.966781 0.144310
vt 0.761778 0.019823
vt 0.760685 0.225482
vt 0.863515 0.226028
vt 0.864607 0.020369
vt 0.022625 0.490167
vt 0.725434 0.017857
vt 0.398736 0.511957
vt 0.492598 0.512050
vt 0.491935 0.985056
vt 0.398073 0.984963
vt 0.612800 0.512169
vt 0.612137 0.985175
vt 0.967019 0.995325
vt 0.865593 0.995894
vt 0.864455 0.793041
vt 0.965882 0.792472
vt 0.763711 0.915321
vt 0.763029 0.793610
vt 0.210349 0.984777
vt 0.116487 0.984684
vt 0.117150 0.511679
vt 0.211012 0.511772
vt 0.022625 0.984591
vt 0.023288 0.511586
vt 0.725434 0.512281
vt 0.724771 0.985286
vt 0.398405 0.254036
vt 0.210680 0.253850
vt 0.116818 0.253758
vt 0.022957 0.253665
vt 0.725103 0.254359
vt 0.612468 0.254248
vt 0.492267 0.254129
vt 0.398405 0.748460
vt 0.210680 0.748274
vt 0.116818 0.748182
vt 0.022957 0.748089
vt 0.725103 0.748783
vt 0.612468 0.748672
vt 0.492267 0.748553
vt 0.398570 0.630209
vt 0.210846 0.630023
vt 0.116984 0.629930
vt 0.023122 0.629837
vt 0.725269 0.630532
vt 0.612634 0.630421
vt 0.492432 0.630302
vt 0.210515 0.866526
vt 0.398239 0.866712
vt 0.492101 0.866804
vt 0.612303 0.866923
vt 0.022791 0.866340
vt 0.724937 0.867035
vt 0.116653 0.866433
vt 0.210515 0.372102
vt 0.398239 0.372288
vt 0.492101 0.372380
vt 0.612303 0.372499
vt 0.022791 0.371916
vt 0.724937 0.372611
vt 0.116653 0.372009
vt 0.398570 0.135785
vt 0.210846 0.135599
vt 0.116984 0.135506
vt 0.023122 0.135413
vt 0.725269 0.136108
vt 0.612634 0.135997
vt 0.492432 0.135878
vt 0.916022 0.020642
vt 0.070219 0.017208
vt 0.552699 0.017686
vt 0.915148 0.185169
vt 0.552533 0.135937
vt 0.552367 0.254188
vt 0.552202 0.372440
vt 0.552699 0.512110
vt 0.552036 0.490691
vt 0.552533 0.630361
vt 0.552367 0.748612
vt 0.552202 0.866864
vt 0.814652 0.955608
vt 0.552036 0.985115
vt 0.069556 0.984638
vt 0.813742 0.793325
vt 0.069722 0.866386
vt 0.069887 0.748135
vt 0.070053 0.629884
vt 0.069556 0.490214
vt 0.070219 0.511632
vt 0.069722 0.371962
vt 0.069887 0.253711
vt 0.070053 0.135460
vt 0.398653 0.076659
vt 0.210929 0.076473
vt 0.117067 0.076380
vt 0.070136 0.076334
vt 0.023205 0.076288
vt 0.725352 0.076982
vt 0.612717 0.076871
vt 0.552616 0.076811
vt 0.492515 0.076752
vt 0.398322 0.313162
vt 0.210598 0.312976
vt 0.116736 0.312883
vt 0.069805 0.312837
vt 0.022874 0.312790
vt 0.725020 0.313485
vt 0.612386 0.313374
vt 0.552284 0.313314
vt 0.492184 0.313255
vt 0.210432 0.431227
vt 0.398156 0.431413
vt 0.492018 0.431506
vt 0.552119 0.431565
vt 0.612220 0.431625
vt 0.022708 0.431042
vt 0.724854 0.431736
vt 0.069639 0.431088
vt 0.116570 0.431135
vt 0.210763 0.194725
vt 0.398487 0.194910
vt 0.492349 0.195003
vt 0.552450 0.195063
vt 0.612551 0.195122
vt 0.023039 0.194539
vt 0.725186 0.195234
vt 0.069970 0.194585
vt 0.116901 0.194632
vt 0.398653 0.571083
vt 0.210929 0.570897
vt 0.117067 0.570804
vt 0.070136 0.570758
vt 0.023205 0.570712
vt 0.725352 0.571406
vt 0.612717 0.571295
vt 0.552616 0.571235
vt 0.492515 0.571176
vt 0.210763 0.689149
vt 0.398487 0.689335
vt 0.492349 0.689427
vt 0.552450 0.689487
vt 0.612551 0.689546
vt 0.023039 0.688963
vt 0.725186 0.689658
vt 0.069970 0.689009
vt 0.116901 0.689056
vt 0.398322 0.807586
vt 0.210598 0.807400
vt 0.116736 0.807307
vt 0.069805 0.807261
vt 0.022874 0.807214
vt 0.725020 0.807909
vt 0.612386 0.807798
vt 0.552284 0.807738
vt 0.492184 0.807679
vt 0.210432 0.925651
vt 0.398156 0.925837
vt 0.492018 0.925930
vt 0.552119 0.925989
vt 0.612220 0.926049
vt 0.022708 0.925466
vt 0.724854 0.926160
vt 0.069639 0.925512
vt 0.116570 0.925559
vn 0.000000 0.000000 1.000000
vn 0.000000 0.000000 1.000000
vn 0.000152 0.000000 1.000000
vn 0.000231 0.000000 1.000000
vn 0.001368 0.000070 0.999999
vn 0.001896 0.000129 0.999998
vn 0.000000 1.000000 0.000000
vn 0.000000 1.000000 0.000000
vn -0.288850 0.956954 -0.028377
vn -0.290588 0.956756 -0.013257
vn -0.620580 0.781747 -0.061261
vn -0.624034 0.780902 -0.027818
vn 0.000000 -1.000000 0.000000
vn 0.000000 -1.000000 0.000000
vn 0.000000 -1.000000 0.000000
vn 0.000000 -1.000000 0.000000
vn 0.000000 -1.000000 0.000000
vn 0.000000 -1.000000 0.000000
vn -0.998716 -0.003426 -0.050551
vn -0.998716 -0.003426 -0.050551
vn -0.994293 -0.008748 -0.106327
vn -0.994487 -0.008574 -0.104507
vn 0.995536 0.000000 0.094382
vn 0.998796 0.000000 0.049067
vn 0.998796 0.000000 0.049067
vn 0.995536 0.000000 0.094382
vn 0.045821 0.998880 0.011846
vn 0.054001 0.998535 0.003379
vn -0.200042 0.939188 -0.279122
vn -0.200383 0.947729 -0.248306
vn -0.398280 0.779884 -0.482861
vn -0.418863 0.775561 -0.472290
vn 1.000000 0.000000 0.000000
vn 1.000000 0.000000 0.000000
vn 1.000000 0.000000 0.000000
vn 1.000000 0.000000 0.000000
vn 1.000000 0.000000 0.000000
vn 1.000000 0.000000 0.000000
vn -0.000000 -1.000000 0.000000
vn -0.000000 -1.000000 0.000000
vn -0.000304 -1.000000 -0.000082
vn -0.000198 -1.000000 -0.000054
vn -0.001496 -0.999999 -0.000135
vn -0.000906 -1.000000 -0.000075
vn -0.598608 -0.245837 -0.762387
vn -0.598608 -0.245837 -0.762387
vn -0.567308 -0.219455 -0.793726
vn -0.572420 -0.223717 -0.788851
vn 0.665238 -0.041147 0.745496
vn 0.690945 -0.049772 0.721192
vn 0.690945 -0.049772 0.721192
vn 0.665233 -0.041145 0.745502
vn 0.718653 -0.042069 0.694095
vn 0.718653 -0.042069 0.694095
vn 0.750252 -0.029180 0.660508
vn 0.750209 -0.029198 0.660556
vn 0.000000 -1.000000 -0.000000
vn 0.000000 -1.000000 0.000000
vn -0.000013 -1.000000 -0.000140
vn -0.000030 -1.000000 -0.000331
vn 0.000075 -1.000000 -0.000704
vn 0.000191 -0.999999 -0.001420
vn -0.729305 -0.253812 -0.635369
vn -0.674002 -0.270958 -0.687243
vn -0.674002 -0.270958 -0.687243
vn -0.726121 -0.254881 -0.638580
vn -0.262303 0.943369 -0.203106
vn -0.269075 0.930143 -0.249866
vn -0.415647 0.787589 -0.454908
vn -0.435570 0.795980 -0.420350
vn -0.006604 0.998452 0.055233
vn 0.003578 0.998790 0.049050
vn 0.020734 0.000269 0.999785
vn 0.020734 0.000269 0.999785
vn 0.044034 0.000266 0.999030
vn 0.044034 0.000266 0.999030
vn 0.000000 -1.000000 0.000000
vn 0.000000 -1.000000 0.000000
vn 0.000000 -1.000000 0.000000
vn 0.000000 -1.000000 0.000000
vn 0.000000 -1.000000 0.000000
vn 0.000000 -1.000000 0.000000
vn -0.074887 -0.004588 -0.997182
vn -0.036918 -0.001345 -0.999317
vn -0.036918 -0.001345 -0.999317
vn -0.074846 -0.004585 -0.997185
vn -0.018795 0.958674 -0.283885
vn -0.009390 0.958671 -0.284361
vn -0.021200 0.780253 -0.625105
vn -0.041875 0.780417 -0.623855
vn 0.000000 1.000000 0.000000
vn 0.000000 1.000000 0.000000
vn 0.273312 0.000351 0.961925
vn 0.408784 -0.003167 0.912626
vn 0.408097 -0.003134 0.912933
vn 0.273362 0.000351 0.961911
vn 0.000000 -1.000000 0.000000
vn -0.000000 -1.000000 -0.000000
vn -0.000000 -1.000000 0.000000
vn 0.000000 -1.000000 0.000000
vn -0.000000 -1.000000 0.000000
vn 0.000000 -1.000000 0.000000
vn -0.436581 -0.121008 -0.891490
vn -0.346547 -0.074086 -0.935102
vn -0.346317 -0.073964 -0.935197
vn -0.437128 -0.121291 -0.891183
vn -0.121994 0.953241 -0.276494
vn -0.098568 0.955445 -0.278226
vn -0.196857 0.785157 -0.587177
vn -0.251155 0.790630 -0.558414
vn 0.015662 0.999872 -0.003195
vn -0.000337 1.000000 0.000396
vn 0.171907 0.000237 0.985113
vn 0.171909 0.000237 0.985113
vn 0.000000 1.000000 0.000000
vn -0.067901 0.957053 -0.281849
vn -0.143844 0.781148 -0.607549
vn -0.257626 -0.037382 -0.965521
vn -0.257141 -0.037232 -0.965657
vn 0.000000 -1.000000 0.000000
vn 0.000000 -1.000000 0.000000
vn 0.000000 -1.000000 0.000000
vn 0.903215 0.000819 0.429188
vn 0.942557 0.000718 0.334044
vn 0.942560 0.000718 0.334035
vn 0.903286 0.000820 0.429038
vn 0.000226 1.000000 -0.000164
vn -0.000929 0.999979 0.006358
vn -0.266676 0.951882 -0.151011
vn -0.269875 0.954886 -0.123938
vn -0.506600 0.810661 -0.293573
vn -0.540434 0.806674 -0.239182
vn -0.902032 -0.123178 -0.413722
vn -0.841742 -0.164853 -0.514096
vn -0.843287 -0.163715 -0.511922
vn -0.903194 -0.122381 -0.411416
vn -0.000000 -1.000000 -0.000000
vn 0.000000 -1.000000 0.000000
vn 0.000000 -1.000000 0.000000
vn 0.000000 -1.000000 0.000000
vn 0.000000 -1.000000 0.000000
vn 0.000000 -1.000000 0.000000
vn 0.969551 0.000178 0.244890
vn 0.969554 0.000178 0.244879
vn 0.000000 -1.000000 0.000000
vn 0.000000 -1.000000 0.000000
vn 0.000000 -1.000000 0.000000
vn -0.952699 -0.074280 -0.294700
vn -0.953609 -0.072973 -0.292071
vn -0.277658 0.956744 -0.086876
vn -0.580994 0.796136 -0.169156
vn 0.000000 1.000000 0.000000
vn 0.003377 0.000294 0.999994
vn 0.003377 0.000294 0.999994
vn -0.621926 0.780660 -0.061463
vn -0.624971 0.780171 -0.027294
vn -0.547124 0.803285 -0.235348
vn -0.588549 0.792166 -0.161501
vn -0.507121 0.810453 -0.293250
vn -0.396920 0.788063 -0.470543
vn -0.415762 0.795951 -0.440004
vn -0.403803 0.780461 -0.477308
vn -0.418357 0.777534 -0.469488
vn -0.190040 0.782688 -0.592693
vn -0.244711 0.788257 -0.564595
vn -0.142155 0.779871 -0.609585
vn -0.021695 0.780387 -0.624921
vn -0.042401 0.780462 -0.623764
vn 1.000000 0.000000 0.000000
vn 1.000000 0.000000 0.000000
vn 0.000000 -1.000000 0.000000
vn 0.000000 -1.000000 0.000000
vn 0.000000 -1.000000 0.000000
vn 0.000000 -1.000000 0.000000
vn 0.000000 -1.000000 0.000000
vn -0.002088 -0.999998 -0.000043
vn -0.001149 -0.999999 -0.000043
vn 0.000167 -1.000000 -0.000982
vn 0.000378 -0.999998 -0.001887
vn 0.000000 -1.000000 0.000000
vn 0.000000 -1.000000 0.000000
vn 0.000000 -1.000000 0.000000
vn 0.000000 -1.000000 0.000000
vn 0.000000 -1.000000 0.000000
vn 0.985335 0.000010 0.170634
vn 0.985335 0.000010 0.170634
vn 0.000000 -1.000000 0.000000
vn 0.000000 -1.000000 0.000000
vn 0.000000 -1.000000 0.000000
vn 0.000000 -1.000000 0.000000
vn -0.979152 -0.030709 -0.200793
vn -0.979625 -0.029796 -0.198613
vn -0.607944 0.785495 -0.115764
vn -0.611884 0.783063 -0.111399
vn -0.284988 0.956848 -0.056782
vn 0.000000 1.000000 0.000000
vn 0.834214 -0.007266 0.551393
vn 0.834731 -0.007180 0.550611
vn -0.000000 -1.000000 0.000000
vn -0.000000 -1.000000 0.000000
vn -0.000008 -1.000000 -0.000036
vn -0.000014 -1.000000 -0.000062
vn -0.796971 -0.209138 -0.566655
vn -0.797836 -0.207943 -0.565878
vn -0.478930 0.808848 -0.341161
vn -0.468246 0.810633 -0.351596
vn -0.276261 0.946472 -0.166947
vn -0.011530 0.999180 0.038806
vn 0.566150 -0.019696 0.824067
vn 0.565827 -0.019643 0.824290
vn 0.000000 -1.000000 -0.000000
vn -0.000013 -1.000000 -0.000004
vn -0.000113 -1.000000 -0.000017
vn -0.000149 -1.000000 -0.000020
vn -0.508631 -0.168536 -0.844328
vn -0.510824 -0.170525 -0.842603
vn -0.325864 0.789669 -0.519841
vn -0.331432 0.788926 -0.517444
vn -0.150037 0.946909 -0.284345
vn 0.054793 0.998441 -0.010611
vn 0.097947 0.000255 0.995192
vn 0.097948 0.000255 0.995192
vn 0.000000 -1.000000 0.000000
vn 0.000000 -1.000000 0.000000
vn 0.000000 -1.000000 0.000000
vn 0.000000 -1.000000 0.000000
vn -0.162696 -0.015511 -0.986554
vn -0.162442 -0.015471 -0.986597
vn -0.090451 0.780454 -0.618636
vn -0.090993 0.780134 -0.618960
vn -0.041026 0.958375 -0.282551
vn 0.000000 1.000000 0.000000
s 1
g Inside_Bend_LP
usemtl initialShadingGroup
f 1/15/1 4/16/2 5/17/3 2/18/4
f 2/18/4 5/17/3 56/86/5 55/83/6
s 2
f 4/4/7 73/107/8 80/115/9 5/3/10
f 5/3/10 80/115/9 79/114/11 56/85/12
s 3
f 74/108/13 1/1/14 2/2/15 75/109/16
f 75/109/16 2/2/15 55/84/17 76/110/18
s 4
f 3/20/19 6/6/20 78/113/21 77/112/22
s 5
f 73/107/23 4/4/24 1/1/25 74/108/26
s 6
f 7/21/27 105/143/28 112/151/29 8/22/30
f 8/22/30 112/151/29 111/150/31 60/90/32
s 7
f 13/27/33 16/30/34 17/29/35 14/28/36
f 14/28/36 17/29/35 65/98/37 64/95/38
s 8
f 106/144/39 10/36/40 11/35/41 107/145/42
f 107/145/42 11/35/41 69/103/43 108/146/44
s 9
f 12/39/45 9/25/46 110/149/47 109/148/48
s 10
f 105/143/49 7/21/50 10/36/51 106/144/52
s 5
f 10/9/53 7/11/54 90/126/55 89/125/56
s 3
f 10/9/57 89/125/58 96/133/59 11/8/60
f 11/8/60 96/133/59 95/132/61 69/102/62
s 4
f 93/129/63 9/7/64 12/10/65 94/131/66
s 2
f 91/127/67 8/12/68 60/91/69 92/128/70
f 90/126/71 7/11/72 8/12/68 91/127/67
s 10
f 16/33/73 13/24/74 130/171/75 129/170/76
s 8
f 16/33/77 129/170/78 136/178/79 17/34/80
f 17/34/80 136/178/79 135/177/81 65/97/82
s 9
f 133/174/83 15/26/84 18/40/85 134/176/86
s 6
f 131/172/87 14/23/88 64/96/89 132/173/90
f 130/171/91 13/24/92 14/23/88 131/172/87
s 10
f 25/48/93 114/153/94 113/152/95 26/49/96
s 8
f 26/49/97 113/152/98 120/160/99 27/50/100
f 27/50/100 120/160/99 119/159/101 67/100/102
s 9
f 117/156/103 29/53/104 28/52/105 118/158/106
s 6
f 115/154/107 30/54/108 62/93/109 116/155/110
f 114/153/111 25/48/112 30/54/108 115/154/107
s 10
f 121/161/113 25/48/93 26/49/96 122/162/114
s 6
f 25/48/112 121/161/115 128/169/116 30/54/108
f 30/54/108 128/169/116 127/168/117 62/93/109
s 9
f 29/53/104 126/167/118 125/166/119 28/52/105
s 8
f 123/163/120 27/50/100 67/100/102 124/164/121
f 122/162/122 26/49/97 27/50/100 123/163/120
s 5
f 81/116/123 19/41/124 20/42/125 82/117/126
s 2
f 19/41/127 81/116/128 88/124/129 24/47/130
f 24/47/130 88/124/129 87/123/131 58/88/132
s 4
f 23/46/133 86/122/134 85/121/135 22/45/136
s 3
f 83/118/137 21/43/138 71/105/139 84/119/140
f 82/117/141 20/42/142 21/43/138 83/118/137
s 5
f 19/41/124 98/135/143 97/134/144 20/42/125
s 3
f 20/42/142 97/134/145 104/142/146 21/43/138
f 21/43/138 104/142/146 103/141/147 71/105/139
s 4
f 101/138/148 23/46/133 22/45/136 102/140/149
s 2
f 99/136/150 24/47/130 58/88/132 100/137/151
f 98/135/152 19/41/127 24/47/130 99/136/150
s 1
f 56/86/5 6/14/153 3/13/154 55/83/6
s 2
f 78/113/155 6/6/156 56/85/12 79/114/11
f 58/88/132 23/46/157 101/138/158 100/137/151
f 86/122/159 23/46/157 58/88/132 87/123/131
f 60/91/69 9/7/160 93/129/161 92/128/70
s 6
f 110/149/162 9/25/163 60/90/32 111/150/31
f 62/93/109 29/53/164 117/156/165 116/155/110
f 126/167/166 29/53/164 62/93/109 127/168/117
f 64/96/89 15/26/167 133/174/168 132/173/90
s 7
f 65/98/37 18/32/169 15/31/170 64/95/38
s 8
f 134/175/171 18/37/172 65/97/82 135/177/81
f 67/100/102 28/51/173 125/165/174 124/164/121
f 118/157/175 28/51/173 67/100/102 119/159/101
f 69/103/43 12/38/176 109/147/177 108/146/44
s 3
f 94/130/178 12/19/179 69/102/62 95/132/61
f 71/105/139 22/44/180 85/120/181 84/119/140
f 102/139/182 22/44/180 71/105/139 103/141/147
f 55/84/17 3/5/183 77/111/184 76/110/18
s 5
f 49/76/185 73/107/23 74/108/26 50/77/186
s 3
f 50/77/187 74/108/13 75/109/16 51/78/188
f 51/78/188 75/109/16 76/110/18 72/106/189
f 77/111/184 52/79/190 72/106/189 76/110/18
s 4
f 78/113/21 53/81/191 52/80/192 77/112/22
s 2
f 57/87/193 53/81/194 78/113/155 79/114/11
f 80/115/9 54/82/195 57/87/193 79/114/11
f 73/107/8 49/76/196 54/82/195 80/115/9
s 5
f 44/70/197 81/116/123 82/117/126 43/69/198
s 3
f 43/69/199 82/117/141 83/118/137 48/75/200
f 48/75/200 83/118/137 84/119/140 70/104/201
f 85/120/181 47/73/202 70/104/201 84/119/140
s 4
f 86/122/134 46/72/203 47/74/204 85/121/135
s 2
f 59/89/205 46/72/206 86/122/159 87/123/131
f 88/124/129 45/71/207 59/89/205 87/123/131
f 81/116/128 44/70/208 45/71/207 88/124/129
s 5
f 90/126/55 44/70/197 43/69/198 89/125/56
s 2
f 44/70/208 90/126/71 91/127/67 45/71/207
f 45/71/207 91/127/67 92/128/70 59/89/205
f 93/129/161 46/72/206 59/89/205 92/128/70
s 4
f 46/72/203 93/129/63 94/131/66 47/74/204
s 3
f 70/104/201 47/73/202 94/130/178 95/132/61
f 96/133/59 48/75/200 70/104/201 95/132/61
f 89/125/58 43/69/199 48/75/200 96/133/59
s 5
f 98/135/143 49/76/185 50/77/186 97/134/144
s 2
f 49/76/196 98/135/152 99/136/150 54/82/195
f 54/82/195 99/136/150 100/137/151 57/87/193
f 101/138/158 53/81/194 57/87/193 100/137/151
s 4
f 53/81/191 101/138/148 102/140/149 52/80/192
s 3
f 72/106/189 52/79/190 102/139/182 103/141/147
f 104/142/146 51/78/188 72/106/189 103/141/147
f 97/134/145 50/77/187 51/78/188 104/142/146
s 10
f 31/55/209 105/143/49 106/144/52 32/56/210
s 8
f 32/56/211 106/144/39 107/145/42 33/57/212
f 33/57/212 107/145/42 108/146/44 68/101/213
f 109/147/177 34/58/214 68/101/213 108/146/44
s 9
f 110/149/47 35/60/215 34/59/216 109/148/48
s 6
f 61/92/217 35/60/218 110/149/162 111/150/31
f 112/151/29 36/61/219 61/92/217 111/150/31
f 105/143/28 31/55/220 36/61/219 112/151/29
s 10
f 114/153/94 31/55/209 32/56/210 113/152/95
s 6
f 31/55/220 114/153/111 115/154/107 36/61/219
f 36/61/219 115/154/107 116/155/110 61/92/217
f 117/156/165 35/60/218 61/92/217 116/155/110
s 9
f 35/60/215 117/156/103 118/158/106 34/59/216
s 8
f 68/101/213 34/58/214 118/157/175 119/159/101
f 120/160/99 33/57/212 68/101/213 119/159/101
f 113/152/98 32/56/211 33/57/212 120/160/99
s 10
f 38/63/221 121/161/113 122/162/114 37/62/222
s 8
f 37/62/223 122/162/122 123/163/120 42/68/224
f 42/68/224 123/163/120 124/164/121 66/99/225
f 125/165/174 41/66/226 66/99/225 124/164/121
s 9
f 126/167/118 40/65/227 41/67/228 125/166/119
s 6
f 63/94/229 40/65/230 126/167/166 127/168/117
f 128/169/116 39/64/231 63/94/229 127/168/117
f 121/161/115 38/63/232 39/64/231 128/169/116
s 10
f 130/171/75 38/63/221 37/62/222 129/170/76
s 6
f 38/63/232 130/171/91 131/172/87 39/64/231
f 39/64/231 131/172/87 132/173/90 63/94/229
f 133/174/168 40/65/230 63/94/229 132/173/90
s 9
f 40/65/227 133/174/83 134/176/86 41/67/228
s 8
f 66/99/225 41/66/226 134/175/171 135/177/81
f 136/178/79 42/68/224 66/99/225 135/177/81
f 129/170/78 37/62/223 42/68/224 136/178/79
