# This file uses centimeters as units for non-parametric coordinates.

mtllib Floor_Bend_LP.mtl
g default
v 0.000000 0.000000 0.000000
v 0.000048 0.000000 0.000000
v 0.014184 -0.000000 -0.249334
v 0.017527 0.000000 -0.323910
v 0.059597 -0.000000 -0.569627
v 0.070795 -0.000000 -0.642034
v 0.141127 0.000000 -0.877551
v 0.154616 -0.000000 -0.946114
v 0.250306 0.000000 -1.173073
v 0.271761 0.000000 -1.239990
v 0.397537 0.000000 -1.452640
v 0.431292 -0.000000 -1.519421
v 0.576967 0.000000 -1.719636
v 0.616637 0.000000 -1.782876
v 0.653222 0.000000 -1.839105
v 0.867211 0.000000 -2.077074
v 1.029434 0.000000 -2.235086
v 1.190541 0.000000 -2.378781
v 1.256226 0.000000 -2.425067
v 1.421016 0.000000 -2.549208
v 1.471375 0.000000 -2.577402
v 1.638462 0.000000 -2.683533
v 1.687886 -0.000000 -2.707453
v 1.739229 0.000000 -2.725440
v 1.911397 -0.000000 -2.811797
v 1.965021 -0.000000 -2.826368
v 2.148358 0.000000 -2.893902
v 2.206016 -0.000000 -2.905193
v 2.404312 -0.000000 -2.952746
v 2.467566 -0.000000 -2.959381
v 2.687813 -0.000000 -2.987827
v 2.756950 -0.000000 -2.990249
v 3.000000 -0.000000 -2.999695
v 3.000000 0.000000 -1.999935
v 2.804657 0.000000 -1.995885
v 2.774773 0.000000 -1.995265
v 2.745978 0.000000 -1.993298
v 2.557749 0.000000 -1.980447
v 2.530558 0.000000 -1.976902
v 2.352819 0.000000 -1.953745
v 2.327654 0.000000 -1.948151
v 2.163158 0.000000 -1.911601
v 2.140013 0.000000 -1.903496
v 1.990139 0.000000 -1.850508
v 1.852438 0.000000 -1.781533
v 1.834261 0.000000 -1.770164
v 1.708910 0.000000 -1.682740
v 1.692532 0.000000 -1.666849
v 1.577866 0.000000 -1.561100
v 1.559432 0.000000 -1.542820
v 1.540646 0.000000 -1.525437
v 1.435922 0.000000 -1.403299
v 1.420011 0.000000 -1.386324
v 1.325783 0.000000 -1.248318
v 1.313173 0.000000 -1.225546
v 1.230721 0.000000 -1.072281
v 1.220163 0.000000 -1.046469
v 1.150847 0.000000 -0.879024
v 1.142568 0.000000 -0.851409
v 1.088055 0.000000 -0.671273
v 1.082064 0.000000 -0.642229
v 1.042905 0.000000 -0.452555
v 1.011170 0.000000 -0.227372
v 1.000000 0.000000 0.000000
v 3.000000 0.000000 0.000000
v 3.000000 0.000000 -3.000000
v 0.000000 0.000000 -3.000000
vt 0.000000 0.000000
vt 0.000016 0.000000
vt 0.004728 0.083111
vt 0.005842 0.107970
vt 0.019866 0.189876
vt 0.023598 0.214011
vt 0.047042 0.292517
vt 0.051539 0.315371
vt 0.083435 0.391024
vt 0.090587 0.413330
vt 0.132512 0.484213
vt 0.143764 0.506474
vt 0.192322 0.573212
vt 0.205546 0.594292
vt 0.217741 0.613035
vt 0.289070 0.692358
vt 0.343145 0.745029
vt 0.396847 0.792927
vt 0.418742 0.808356
vt 0.473672 0.849736
vt 0.490458 0.859134
vt 0.546154 0.894511
vt 0.562629 0.902484
vt 0.579743 0.908480
vt 0.637132 0.937266
vt 0.655007 0.942123
vt 0.716119 0.964634
vt 0.735339 0.968398
vt 0.801437 0.984249
vt 0.822522 0.986460
vt 0.895938 0.995942
vt 0.918983 0.996750
vt 1.000000 0.999898
vt 1.000000 0.666645
vt 0.934886 0.665295
vt 0.924924 0.665088
vt 0.915326 0.664433
vt 0.852583 0.660149
vt 0.843519 0.658967
vt 0.784273 0.651248
vt 0.775885 0.649384
vt 0.721053 0.637200
vt 0.713338 0.634499
vt 0.663380 0.616836
vt 0.617479 0.593844
vt 0.611420 0.590055
vt 0.569637 0.560913
vt 0.564177 0.555616
vt 0.525955 0.520367
vt 0.519811 0.514273
vt 0.513549 0.508479
vt 0.478641 0.467766
vt 0.473337 0.462108
vt 0.441928 0.416106
vt 0.437724 0.408515
vt 0.410240 0.357427
vt 0.406721 0.348823
vt 0.383616 0.293008
vt 0.380856 0.283803
vt 0.362685 0.223758
vt 0.360688 0.214076
vt 0.347635 0.150852
vt 0.337057 0.075791
vt 0.333333 0.000000
vt 1.000000 0.000000
vt 1.000000 1.000000
vt 0.000000 1.000000
vn 0.000000 1.000000 0.000000
vn 0.000000 1.000000 0.000000
vn 0.000000 1.000000 0.000000
vn 0.000000 1.000000 0.000000
vn 0.000000 1.000000 0.000000
vn 0.000000 1.000000 0.000000
vn 0.000000 1.000000 0.000000
vn 0.000000 1.000000 0.000000
vn 0.000000 1.000000 0.000000
vn 0.000000 1.000000 0.000000
vn 0.000000 1.000000 0.000000
vn 0.000000 1.000000 0.000000
vn 0.000000 1.000000 0.000000
vn 0.000000 1.000000 0.000000
vn 0.000000 1.000000 0.000000
vn 0.000000 1.000000 0.000000
vn 0.000000 1.000000 0.000000
vn 0.000000 1.000000 0.000000
vn 0.000000 1.000000 0.000000
vn 0.000000 1.000000 0.000000
vn 0.000000 1.000000 0.000000
vn 0.000000 1.000000 0.000000
vn 0.000000 1.000000 0.000000
vn 0.000000 1.000000 0.000000
vn 0.000000 1.000000 0.000000
vn 0.000000 1.000000 0.000000
vn 0.000000 1.000000 0.000000
vn 0.000000 1.000000 0.000000
vn 0.000000 1.000000 0.000000
vn 0.000000 1.000000 0.000000
vn 0.000000 1.000000 0.000000
vn 0.000000 1.000000 0.000000
vn 0.000000 1.000000 0.000000
vn 0.000000 1.000000 0.000000
vn 0.000000 1.000000 0.000000
vn 0.000000 1.000000 0.000000
vn 0.000000 1.000000 0.000000
vn 0.000000 1.000000 0.000000
vn 0.000000 1.000000 0.000000
vn 0.000000 1.000000 0.000000
vn 0.000000 1.000000 0.000000
vn 0.000000 1.000000 0.000000
vn 0.000000 1.000000 0.000000
vn 0.000000 1.000000 0.000000
vn 0.000000 1.000000 0.000000
vn 0.000000 1.000000 0.000000
vn 0.000000 1.000000 0.000000
vn 0.000000 1.000000 0.000000
vn 0.000000 1.000000 0.000000
vn 0.000000 1.000000 0.000000
vn 0.000000 1.000000 0.000000
vn 0.000000 1.000000 0.000000
vn 0.000000 1.000000 0.000000
vn 0.000000 1.000000 0.000000
vn 0.000000 1.000000 0.000000
vn 0.000000 1.000000 0.000000
vn 0.000000 1.000000 0.000000
vn 0.000000 1.000000 0.000000
vn 0.000000 1.000000 0.000000
vn 0.000000 1.000000 0.000000
vn 0.000000 1.000000 0.000000
vn 0.000000 1.000000 0.000000
vn 0.000000 1.000000 0.000000
vn 0.000000 1.000000 0.000000
vn 0.000000 1.000000 0.000000
vn 0.000000 1.000000 0.000000
vn 0.000000 1.000000 0.000000
s off
g Floor_Bend_LP
usemtl initialShadingGroup
f 1/1/1 2/2/2 3/3/3 4/4/4 5/5/5 6/6/6 7/7/7 8/8/8 9/9/9 10/10/10 11/11/11 12/12/12 13/13/13 14/14/14 15/15/15 16/16/16 17/17/17 18/18/18 19/19/19 20/20/20 21/21/21 22/22/22 23/23/23 24/24/24 25/25/25 26/26/26 27/27/27 28/28/28 29/29/29 30/30/30 31/31/31 32/32/32 33/33/33 34/34/34 35/35/35 36/36/36 37/37/37 38/38/38 39/39/39 40/40/40 41/41/41 42/42/42 43/43/43 44/44/44 45/45/45 46/46/46 47/47/47 48/48/48 49/49/49 50/50/50 51/51/51 52/52/52 53/53/53 54/54/54 55/55/55 56/56/56 57/57/57 58/58/58 59/59/59 60/60/60 61/61/61 62/62/62 63/63/63 64/64/64 65/65/65 66/66/66 67/67/67
