# This file uses centimeters as units for non-parametric coordinates.

mtllib Inside_Corner_LP.mtl
g default
v 3.000000 0.000000 -0.000724
v 3.000000 0.600289 -0.000724
v 2.000000 1.000000 -3.000000
v 2.500000 1.000000 -3.000000
v 3.000000 0.600000 -3.000000
v 2.000000 0.000000 -3.000000
v 2.500000 0.000000 -3.000000
v 3.000000 0.000000 -3.000000
v 1.999329 1.000000 -0.999331
v 2.500027 1.000000 -0.500027
v 1.999329 0.000000 -0.999331
v 2.500000 0.000000 -0.500054
v 0.000000 0.000000 -1.000000
v 0.000000 0.000000 -0.500000
v 0.000000 0.000000 0.000000
v 0.000000 1.000000 -1.000000
v 0.000000 1.000000 -0.500000
v 0.000000 0.600000 0.000000
v 2.500054 0.000000 -0.500000
vt 0.612800 0.512637
vt 0.865660 0.982216
vt 0.979159 0.981580
vt 0.612137 0.985528
vt 0.116487 0.985038
vt 0.210349 0.985131
vt 0.724771 0.985640
vt 0.751653 0.892054
vt 0.750889 0.755856
vt 0.398073 0.985317
vt 0.977886 0.754582
vt 0.864387 0.755219
vt 0.491935 0.985409
vt 0.022625 0.984945
vt 0.725434 0.512748
vt 0.398515 0.669768
vt 0.492488 0.591247
vt 0.210791 0.669583
vt 0.117040 0.590875
vt 0.023288 0.512168
vt 0.744966 0.002876
vt 0.864697 0.003513
vt 0.863425 0.242974
vt 0.743694 0.242338
vt 0.984428 0.004149
vt 0.983665 0.147825
vt 0.398736 0.017533
vt 0.492598 0.017626
vt 0.492045 0.411806
vt 0.398294 0.332659
vt 0.612800 0.017745
vt 0.611963 0.490750
vt 0.725434 0.017857
vt 0.724771 0.490862
vt 0.210570 0.332473
vt 0.116597 0.411435
vt 0.117150 0.017255
vt 0.211012 0.017348
vt 0.022761 0.490167
vt 0.023288 0.017162
vn -0.000000 0.000000 -1.000000
vn -0.000000 0.000000 -1.000000
vn -0.000000 0.000000 -1.000000
vn -0.000000 0.000000 -1.000000
vn 0.000000 0.000000 -1.000000
vn 0.000000 0.000000 -1.000000
vn 0.000000 -1.000000 0.000000
vn 0.000000 -1.000000 0.000000
vn 0.000000 -1.000000 0.000000
vn 0.000000 -1.000000 0.000000
vn 0.000000 -1.000000 0.000000
vn 0.000000 -1.000000 0.000000
vn -1.000000 0.000000 -0.000335
vn -1.000000 0.000000 -0.000335
vn -1.000000 0.000000 -0.000335
vn -1.000000 0.000000 -0.000335
vn 0.000000 1.000000 0.000000
vn 0.527346 0.849650 -0.000037
vn 0.402472 0.915432 -0.000028
vn 0.000000 1.000000 0.000000
vn 0.624581 0.780960 -0.000044
vn 0.624581 0.780960 -0.000044
vn 1.000000 0.000001 0.000000
vn 1.000000 0.000001 0.000000
vn 1.000000 0.000001 0.000000
vn 1.000000 0.000001 0.000000
vn -1.000000 0.000000 0.000000
vn -1.000000 0.000000 0.000000
vn -1.000000 0.000000 0.000000
vn -1.000000 0.000000 0.000000
vn -1.000000 0.000000 0.000000
vn -1.000000 0.000000 0.000000
vn 0.000000 1.000000 0.000000
vn 0.000028 0.915250 0.402885
vn 0.000037 0.849226 0.528029
vn 0.000000 1.000000 0.000000
vn 0.000044 0.780778 0.624809
vn 0.000044 0.780778 0.624809
vn 0.000241 -0.000000 1.000000
vn 0.000241 -0.000000 1.000000
vn 0.000241 -0.000000 1.000000
vn 0.000241 -0.000000 1.000000
vn 0.000000 -1.000000 0.000000
vn 0.000000 -1.000000 0.000000
vn 0.000000 -1.000000 0.000000
vn 0.000000 -1.000000 0.000000
vn 0.000000 -1.000000 0.000000
vn 0.000000 -1.000000 0.000000
vn 0.000335 0.000000 -1.000000
vn 0.000335 0.000000 -1.000000
vn 0.000335 0.000000 -1.000000
vn 0.000335 0.000000 -1.000000
s 1
g Inside_Corner_LP
usemtl initialShadingGroup
f 3/3/1 4/2/2 7/12/3 6/11/4
f 4/2/2 5/8/5 8/9/6 7/12/3
s 2
f 6/6/7 7/5/8 12/19/9 11/18/10
f 7/5/8 8/14/11 1/20/12 12/19/9
s off
f 6/6/13 11/18/14 9/16/15 3/10/16
s 3
f 9/16/17 10/17/18 4/13/19 3/10/20
f 10/17/18 2/1/21 5/4/22 4/13/19
s off
f 2/1/23 1/15/24 8/7/25 5/4/26
s 4
f 13/21/27 14/22/28 17/23/29 16/24/30
f 14/22/28 15/25/31 18/26/32 17/23/29
s 5
f 16/27/33 17/28/34 10/29/35 9/30/36
f 17/28/34 18/31/37 2/32/38 10/29/35
s off
f 15/33/39 1/34/40 2/32/41 18/31/42
s 6
f 11/35/43 19/36/44 14/37/45 13/38/46
f 19/36/44 1/39/47 15/40/48 14/37/45
s off
f 9/30/49 11/35/50 13/38/51 16/27/52
