# This file uses centimeters as units for non-parametric coordinates.

mtllib Wall_HP.mtl
g default
v 1.287801 0.000000 -0.623674
v 1.287801 0.000000 -3.623674
v 0.802090 0.996171 -0.652243
v 0.791629 0.985710 -0.652243
v 0.787801 0.971421 -0.652253
v 0.791629 0.971405 -0.637963
v 0.802090 0.971405 -0.627503
v 0.816380 0.971421 -0.623674
v 0.816380 0.985710 -0.627503
v 0.816380 0.996171 -0.637963
v 0.816380 1.000000 -0.652253
v 1.293084 0.993745 -0.653117
v 1.279767 0.998416 -0.653117
v 1.265745 1.000000 -0.653107
v 1.265396 0.994714 -0.637960
v 1.270010 0.984682 -0.627120
v 1.278254 0.972784 -0.623674
v 1.292124 0.976942 -0.627125
v 1.301993 0.981893 -0.637964
v 1.305023 0.986222 -0.653107
v 1.785681 0.591081 -0.652999
v 1.779512 0.603917 -0.652999
v 1.769839 0.614370 -0.652994
v 1.766810 0.610950 -0.638120
v 1.763342 0.600834 -0.627355
v 1.760393 0.586827 -0.623674
v 1.773163 0.580370 -0.627352
v 1.783230 0.576759 -0.638118
v 1.787801 0.576997 -0.652994
v 0.802090 0.971405 -3.619845
v 0.791629 0.971405 -3.609384
v 0.787801 0.971421 -3.595095
v 0.791629 0.985710 -3.595100
v 0.802090 0.996171 -3.595100
v 0.816380 1.000000 -3.595095
v 0.816380 0.996171 -3.609384
v 0.816380 0.985710 -3.619845
v 0.816380 0.971421 -3.623674
v 1.270137 0.984667 -3.620308
v 1.265639 0.994703 -3.609621
v 1.266065 1.000000 -3.594668
v 1.279916 0.998417 -3.594519
v 1.293123 0.993743 -3.594374
v 1.305023 0.986222 -3.594241
v 1.301993 0.981893 -3.609383
v 1.292124 0.976942 -3.620223
v 1.278254 0.972784 -3.623674
v 1.783218 0.576974 -3.609429
v 1.773149 0.580479 -3.620061
v 1.760393 0.586827 -3.623674
v 1.763418 0.600755 -3.620058
v 1.766971 0.610806 -3.609426
v 1.770065 0.614188 -3.594724
v 1.779617 0.603868 -3.594725
v 1.785708 0.591193 -3.594725
v 1.787801 0.577288 -3.594724
v 0.787801 0.000000 -0.652253
v 0.816380 0.000000 -0.623674
v 0.802090 0.000000 -0.627503
v 0.791629 0.000000 -0.637963
v 1.787801 0.000000 -0.652253
v 1.783972 0.000000 -0.637963
v 1.773511 0.000000 -0.627503
v 1.759221 0.000000 -0.623674
v 0.787801 0.000000 -3.595095
v 0.791629 0.000000 -3.609384
v 0.802090 0.000000 -3.619845
v 0.816380 0.000000 -3.623674
v 1.787801 0.000000 -3.595095
v 1.759221 0.000000 -3.623674
v 1.773511 0.000000 -3.619845
v 1.783972 0.000000 -3.609384
v 0.804034 0.994033 -0.639901
v 0.793779 0.983781 -0.639904
v 0.804030 0.983770 -0.629654
v 1.292160 0.989640 -0.639965
v 1.277954 0.994623 -0.639968
v 1.282818 0.985797 -0.629138
v 1.782573 0.589247 -0.640117
v 1.776126 0.602659 -0.640114
v 1.773383 0.593071 -0.629462
v 0.804030 0.983770 -3.617692
v 0.793779 0.983781 -3.607440
v 0.804034 0.994033 -3.607444
v 1.282887 0.985788 -3.618269
v 1.278087 0.994617 -3.607554
v 1.292197 0.989633 -3.607472
v 1.782587 0.589339 -3.607457
v 1.773414 0.593086 -3.617985
v 1.776206 0.602612 -3.607461
vt 0.767655 0.019854
vt 0.393365 0.022034
vt 0.211006 0.021854
vt 0.766594 0.219635
vt 0.725428 0.022363
vt 0.961159 0.141571
vt 0.961559 0.020884
vt 0.210355 0.485847
vt 0.960084 0.298080
vt 0.403444 0.486038
vt 0.487861 0.486054
vt 0.496082 0.485995
vt 0.607880 0.486182
vt 0.768826 0.299153
vt 0.616407 0.486190
vt 0.724777 0.486356
vt 0.864607 0.020369
vt 0.861581 0.220420
vt 0.404095 0.022044
vt 0.488451 0.022262
vt 0.496733 0.022271
vt 0.608475 0.022364
vt 0.961189 0.495136
vt 0.867498 0.495938
vt 0.769256 0.418194
vt 0.864455 0.298617
vt 0.617112 0.022372
vt 0.392714 0.486028
vt 0.117150 0.017255
vt 0.205647 0.017342
vt 0.204984 0.490348
vt 0.022631 0.485661
vt 0.023282 0.021668
vt 0.028653 0.017167
vt 0.116487 0.490260
vt 0.027990 0.490173
vt 0.400510 0.022013
vt 0.396951 0.022009
vt 0.840588 0.020241
vt 0.395402 0.017530
vt 0.800968 0.119107
vt 0.799494 0.118198
vt 0.402964 0.017538
vt 0.843495 0.020257
vt 0.493968 0.022247
vt 0.491211 0.022244
vt 0.876210 0.020431
vt 0.488083 0.017622
vt 0.863063 0.128415
vt 0.866990 0.128525
vt 0.495751 0.017629
vt 0.879157 0.020446
vt 0.614232 0.022346
vt 0.611360 0.022343
vt 0.922487 0.020677
vt 0.608484 0.017741
vt 0.939541 0.083846
vt 0.941429 0.083493
vt 0.616100 0.017748
vt 0.925414 0.020692
vt 0.928705 0.463626
vt 0.395508 0.490536
vt 0.897345 0.433123
vt 0.396307 0.486052
vt 0.399863 0.486049
vt 0.403244 0.488309
vt 0.894845 0.438505
vt 0.403101 0.490544
vt 0.489468 0.490629
vt 0.866405 0.499721
vt 0.488212 0.488431
vt 0.490587 0.486032
vt 0.493326 0.486012
vt 0.495686 0.488406
vt 0.864516 0.499347
vt 0.494378 0.490634
vt 0.811035 0.393867
vt 0.615790 0.490754
vt 0.789701 0.406037
vt 0.608279 0.490747
vt 0.814343 0.400392
vt 0.609305 0.487812
vt 0.611114 0.486015
vt 0.613758 0.486115
vt 0.768733 0.019860
vt 0.208452 0.017345
vt 0.211256 0.017348
vt 0.769811 0.019866
vt 0.967437 0.020915
vt 0.023288 0.017162
vt 0.725434 0.017857
vt 0.964498 0.020900
vt 0.025971 0.017165
vt 0.958230 0.302072
vt 0.210615 0.490353
vt 0.959157 0.300076
vt 0.207799 0.490351
vt 0.765927 0.299169
vt 0.025307 0.490170
vt 0.724771 0.490862
vt 0.022625 0.490167
vt 0.763029 0.299186
vt 0.842571 0.020252
vt 0.400561 0.017535
vt 0.841514 0.020246
vt 0.397812 0.017533
vt 0.643184 0.073997
vt 0.878234 0.020441
vt 0.493348 0.017627
vt 0.877137 0.020436
vt 0.490494 0.017624
vt 0.716447 0.090305
vt 0.924491 0.020687
vt 0.613699 0.017746
vt 0.923407 0.020681
vt 0.610878 0.017743
vt 0.810488 0.059738
vt 0.400687 0.490541
vt 0.895640 0.436794
vt 0.397927 0.490539
vt 0.896549 0.434838
vt 0.400061 0.488721
vt 0.491935 0.490632
vt 0.865593 0.501470
vt 0.490519 0.488147
vt 0.493367 0.488152
vt 0.613422 0.490752
vt 0.812078 0.395924
vt 0.610691 0.490749
vt 0.813281 0.398296
vt 0.671475 0.460870
vn -0.999992 0.003881 0.001289
vn -0.965951 0.258723 0.000915
vn -0.965951 0.258723 -0.000915
vn -0.999992 0.003880 -0.001289
vn -0.707107 0.707106 0.000959
vn -0.707107 0.707106 0.000960
vn -0.707107 0.707106 -0.000960
vn -0.707107 0.707106 -0.000959
vn -0.258725 0.965951 0.000911
vn -0.008249 0.999965 0.001526
vn -0.008244 0.999965 -0.001527
vn -0.258725 0.965951 -0.000911
vn -0.007926 0.003587 0.999962
vn -0.258546 0.002741 0.965995
vn -0.258818 -0.000000 0.965926
vn -0.007956 -0.000000 0.999968
vn -0.707103 0.002890 0.707104
vn -0.866089 0.002913 0.499882
vn -0.866026 0.000000 0.499999
vn -0.707107 -0.000000 0.707106
vn -0.999999 0.000000 0.001295
vn -0.004270 0.863717 0.503960
vn 0.003537 0.854071 0.520144
vn 0.003413 0.999993 0.001514
vn -0.004480 0.720454 0.693489
vn 0.002494 0.462041 0.886855
vn -0.006747 0.266648 0.963770
vn 0.001299 0.003237 0.999994
vn 0.224094 0.974566 0.001459
vn 0.223416 0.974722 -0.001431
vn 0.003395 0.999993 -0.001514
vn 0.435900 0.899994 0.001450
vn 0.435266 0.900301 -0.001431
vn 0.622679 0.782475 0.001636
vn 0.622667 0.782485 -0.001636
vn 0.533198 0.669583 0.517067
vn 0.537042 0.668919 0.513939
vn 0.627383 0.778710 0.001638
vn 0.297154 0.374476 0.878332
vn 0.308587 0.381920 0.871155
vn 0.004799 0.002292 0.999986
vn 0.826798 0.562498 0.001254
vn 0.826813 0.562476 -0.001206
vn 0.627384 0.778708 -0.001636
vn 0.955733 0.294234 0.001256
vn 0.955725 0.294260 -0.001208
vn 0.999993 0.003557 0.001400
vn 0.999993 0.003560 -0.001399
vn 0.859206 0.002969 0.511621
vn 0.867140 0.000780 0.498063
vn 0.999999 0.000004 0.001422
vn 0.469509 0.002669 0.882924
vn 0.718902 0.000679 0.695111
vn 0.005767 -0.000007 0.999983
vn 0.267256 -0.000313 0.963626
vn -0.866088 0.002915 -0.499884
vn -0.866025 0.000000 -0.500001
vn -0.999999 0.000000 -0.001295
vn -0.707097 0.002891 -0.707111
vn -0.707100 0.000000 -0.707113
vn -0.258556 0.002741 -0.965993
vn -0.007927 0.003549 -0.999962
vn -0.007956 -0.000000 -0.999968
vn -0.258828 -0.000000 -0.965924
vn -0.006832 0.264103 -0.964470
vn 0.002407 0.459658 -0.888093
vn 0.001287 0.003212 -0.999994
vn -0.004726 0.717923 -0.696107
vn -0.004518 0.862175 -0.506590
vn 0.003364 0.852646 -0.522479
vn 0.295589 0.372509 -0.879696
vn 0.307293 0.380559 -0.872207
vn 0.004777 0.002281 -0.999986
vn 0.532271 0.668514 -0.519400
vn 0.536173 0.668129 -0.515870
vn 0.467667 0.002512 -0.883901
vn 0.265220 -0.000363 -0.964188
vn 0.005717 -0.000008 -0.999984
vn 0.858056 0.002774 -0.513549
vn 0.865755 0.000639 -0.500468
vn 0.716658 0.000533 -0.697424
vn 0.999999 0.000004 -0.001424
vn 0.000000 0.000000 1.000000
vn 0.000000 0.000000 -1.000000
vn 0.000000 -1.000000 0.000000
vn 0.000000 -1.000000 0.000000
vn 0.000000 -1.000000 0.000000
vn 0.000000 -1.000000 0.000000
vn 0.000000 -1.000000 0.000000
vn 0.000000 -1.000000 0.000000
vn 0.000000 -1.000000 0.000000
vn 0.000000 -1.000000 0.000000
vn 0.000000 -1.000000 0.000000
vn 0.000000 -1.000000 0.000000
vn 0.000000 -1.000000 0.000000
vn 0.000000 -1.000000 0.000000
vn 0.000000 -1.000000 0.000000
vn 0.000000 -1.000000 0.000000
vn 0.000000 -1.000000 0.000000
vn 0.000000 -1.000000 0.000000
vn 0.000000 -1.000000 0.000000
vn 0.000000 -1.000000 0.000000
vn -0.228556 0.946283 0.228718
vn -0.499254 0.707827 0.499726
vn -0.707889 0.499265 0.499628
vn -0.946135 0.228734 0.229150
vn -0.499560 0.498985 0.708134
vn -0.229202 0.228956 0.946068
vn 0.423818 0.793541 0.436659
vn 0.164662 0.884363 0.436792
vn 0.211685 0.604426 0.768022
vn 0.878592 0.230871 0.418061
vn 0.729164 0.541879 0.417955
vn 0.575411 0.276240 0.769801
vn -0.229233 0.228996 -0.946051
vn -0.499610 0.499023 -0.708072
vn -0.707901 0.499334 -0.499542
vn -0.946123 0.228803 -0.229131
vn -0.499322 0.707831 -0.499653
vn -0.228620 0.946273 -0.228691
vn 0.214779 0.599937 -0.770679
vn 0.168413 0.881795 -0.440538
vn 0.427629 0.790478 -0.438495
vn 0.876402 0.229659 -0.423292
vn 0.570322 0.273797 -0.774447
vn 0.726847 0.540930 -0.423189
s 1
g Wall_HP
usemtl initialShadingGroup
f 5/2/1 4/38/2 33/64/3 32/28/4
f 4/38/5 3/37/6 34/65/7 33/64/8
f 3/37/9 11/19/10 35/10/11 34/65/12
f 8/4/13 7/41/14 59/85/15 58/1/16
f 7/41/17 6/39/18 60/88/19 59/85/20
f 6/40/18 5/2/1 57/3/21 60/87/19
f 11/19/10 10/43/22 15/48/23 14/20/24
f 10/44/22 9/42/25 16/49/26 15/47/23
f 9/42/27 8/4/13 17/18/28 16/49/26
f 14/20/24 13/46/29 42/72/30 41/11/31
f 13/46/29 12/45/32 43/73/33 42/72/30
f 12/45/32 20/21/34 44/12/35 43/73/33
f 20/21/34 19/51/36 24/56/37 23/22/38
f 19/52/36 18/50/39 25/57/40 24/55/37
f 18/50/39 17/18/28 26/6/41 25/57/40
f 23/22/38 22/54/42 54/83/43 53/13/44
f 22/54/42 21/53/45 55/84/46 54/83/43
f 21/53/45 29/27/47 56/15/48 55/84/46
f 29/27/47 28/59/49 62/91/50 61/5/51
f 28/60/49 27/58/52 63/92/53 62/89/50
f 27/58/52 26/6/41 64/7/54 63/92/55
f 32/28/4 31/62/56 66/95/57 65/8/58
f 31/63/56 30/61/59 67/96/60 66/94/57
f 30/61/61 38/23/62 68/9/63 67/96/64
f 38/23/62 37/67/65 39/70/66 47/24/67
f 37/68/68 36/66/69 40/71/70 39/69/66
f 36/66/69 35/10/11 41/11/31 40/71/70
f 47/24/67 46/75/71 51/81/72 50/25/73
f 46/76/71 45/74/74 52/82/75 51/80/72
f 45/74/74 44/12/35 53/13/44 52/82/75
f 50/25/73 49/79/76 71/98/77 70/14/78
f 49/79/76 48/77/79 72/102/80 71/98/81
f 48/78/79 56/15/48 69/16/82 72/100/80
f 8/4/13 58/1/16 1/17/83 17/18/28
f 1/17/83 64/7/54 26/6/41 17/18/28
f 11/19/10 14/20/24 41/11/31 35/10/11
f 20/21/34 23/22/38 53/13/44 44/12/35
f 38/23/62 47/24/67 2/26/84 68/9/63
f 47/24/67 50/25/73 70/14/78 2/26/84
f 29/27/47 61/5/51 69/16/82 56/15/48
f 32/28/4 65/8/58 57/3/21 5/2/1
s 10
f 2/35/85 1/29/86 58/30/87 59/86/88 60/87/89 57/3/90 65/8/91 66/95/92 67/97/93 68/31/94
f 69/32/95 61/33/96 62/90/97 63/93/98 64/34/99 1/29/86 2/35/85 70/36/100 71/99/101 72/101/102
s 1
f 10/43/22 11/19/10 3/37/9 73/104/103
f 73/104/104 3/37/6 4/38/5 74/106/105
f 4/38/2 5/2/1 6/40/18 74/106/106
f 74/105/105 6/39/18 7/41/17 75/107/107
f 7/41/14 8/4/13 9/42/27 75/107/108
f 75/107/107 9/42/25 10/44/22 73/103/104
f 73/103/104 74/105/105 75/107/107
f 19/51/36 20/21/34 12/45/32 76/109/109
f 76/109/109 12/45/32 13/46/29 77/111/110
f 13/46/29 14/20/24 15/48/23 77/111/110
f 77/110/110 15/47/23 16/49/26 78/112/111
f 16/49/26 17/18/28 18/50/39 78/112/111
f 78/112/111 18/50/39 19/52/36 76/108/109
f 76/108/109 77/110/110 78/112/111
f 28/59/49 29/27/47 21/53/45 79/114/112
f 79/114/112 21/53/45 22/54/42 80/116/113
f 22/54/42 23/22/38 24/56/37 80/116/113
f 80/115/113 24/55/37 25/57/40 81/117/114
f 25/57/40 26/6/41 27/58/52 81/117/114
f 81/117/114 27/58/52 28/60/49 79/113/112
f 79/113/112 80/115/113 81/117/114
f 37/67/65 38/23/62 30/61/61 82/119/115
f 82/119/116 30/61/59 31/63/56 83/121/117
f 31/62/56 32/28/4 33/64/3 83/120/118
f 83/120/117 33/64/8 34/65/7 84/122/119
f 34/65/12 35/10/11 36/66/69 84/122/120
f 84/122/119 36/66/69 37/68/68 82/118/116
f 82/118/116 83/120/117 84/122/119
f 46/75/71 47/24/67 39/70/66 85/124/121
f 85/123/121 39/69/66 40/71/70 86/125/122
f 40/71/70 41/11/31 42/72/30 86/125/122
f 86/125/122 42/72/30 43/73/33 87/126/123
f 43/73/33 44/12/35 45/74/74 87/126/123
f 87/126/123 45/74/74 46/76/71 85/123/121
f 85/123/121 86/125/122 87/126/123
f 55/84/46 56/15/48 48/78/79 88/127/124
f 88/128/124 48/77/79 49/79/76 89/130/125
f 49/79/76 50/25/73 51/81/72 89/130/125
f 89/129/125 51/80/72 52/82/75 90/131/126
f 52/82/75 53/13/44 54/83/43 90/131/126
f 90/131/126 54/83/43 55/84/46 88/127/124
f 88/127/124 89/129/125 90/131/126
